#!OML:ASF F:\VICON\USERDATA\INSTALL\rory3\rory3.ASF
:FULLY-SPECIFIED
:DEGREES
392
root 2.02156 17.6829 28.1058 -150.735 -14.1165 -176.7
lowerback -11.9355 -2.16616 3.34756
upperback -10.2522 -4.61053 2.85762
thorax -4.10928 -3.06519 0.790639
lowerneck -13.8311 1.19336 -1.59507
upperneck 31.6576 -0.885621 1.87684
head 12.854 -1.21436 0.67108
rclavicle -5.78339e-015 0
rhumerus -51.5257 -28.7798 -24.6873
rradius 17.152
rwrist 0.387846
rhand -18.707 6.00856
rfingers 7.12502
rthumb 7.58793 -23.8353
lclavicle -5.78339e-015 0
lhumerus -13.1527 -24.4243 76.1732
lradius 20.9927
lwrist -37.469
lhand -11.6564 22.1482
lfingers 7.12502
lthumb 14.3881 51.6295
rfemur -52.7877 -1.15115 30.7177
rtibia 56.0217
rfoot 1.88217 -20.7528
rtoes 3.18165
lfemur -38.4755 -2.48355 -16.124
ltibia 53.4992
lfoot 11.4761 17.3741
ltoes -27.495
393
root 2.05318 17.5787 28.0023 -150.457 -13.981 -177.559
lowerback -12.4429 -2.31921 2.46411
upperback -10.1406 -4.74802 2.58943
thorax -3.67067 -3.08208 0.941584
lowerneck -13.8902 1.23916 -1.53693
upperneck 31.8244 -0.879614 1.91887
head 12.9365 -1.20811 0.676249
rclavicle 3.61633e-014 1.28465e-014
rhumerus -50.8799 -23.5153 -32.6083
rradius 20.9072
rwrist -11.8449
rhand -18.3039 5.22503
rfingers 7.12502
rthumb 7.97704 -24.6044
lclavicle 3.61633e-014 1.28465e-014
lhumerus -15.5439 -22.7125 77.4573
lradius 21.138
lwrist -33.6122
lhand -12.6943 21.3508
lfingers 7.12502
lthumb 13.3878 50.9006
rfemur -51.9854 -0.746965 30.0361
rtibia 55.818
rfoot -2.36479 -21.4323
rtoes 11.0803
lfemur -39.1258 -2.66917 -16.7972
ltibia 55.3661
lfoot 14.2556 17.3387
ltoes -23.1328
394
root 2.08219 17.4665 27.9031 -150.304 -13.8108 -178.374
lowerback -12.7798 -2.42705 1.64001
upperback -9.90554 -4.78414 2.32449
thorax -3.19686 -3.04006 1.07655
lowerneck -14.5374 1.21714 -1.58776
upperneck 32.161 -0.906117 1.97509
head 13.2197 -1.21059 0.703398
rclavicle 5.23456e-014 1.40267e-014
rhumerus -51.2331 -20.3469 -38.2896
rradius 24.6687
rwrist -21.5849
rhand -18.1544 4.3196
rfingers 7.12502
rthumb 8.12136 -25.5043
lclavicle 5.23456e-014 1.40267e-014
lhumerus -17.6035 -20.8542 78.498
lradius 21.3107
lwrist -29.0628
lhand -12.9676 20.0837
lfingers 7.12502
lthumb 13.1245 49.6507
rfemur -51.0701 -0.334163 29.3969
rtibia 55.7255
rfoot -7.95433 -21.4109
rtoes 22.1532
lfemur -39.7793 -2.74165 -17.5018
ltibia 57.461
lfoot 9.28075 15.4836
ltoes -28.4671
395
root 2.10713 17.3474 27.805 -150.23 -13.7273 -179.074
lowerback -12.9243 -2.36888 1.03531
upperback -9.87402 -4.64382 1.95616
thorax -3.07344 -2.94396 1.03022
lowerneck -14.4651 1.10758 -1.58495
upperneck 32.2785 -1.12002 2.03097
head 13.26 -1.30559 0.690314
rclavicle -6.3573e-014 1.40392e-015
rhumerus -52.4879 -17.8015 -43.0362
rradius 28.8929
rwrist -30.9191
rhand -19.1002 2.55778
rfingers 7.12502
rthumb 7.20844 -27.2994
lclavicle -6.3573e-014 1.40392e-015
lhumerus -20.0194 -19.572 79.544
lradius 21.5557
lwrist -23.9066
lhand -12.486 18.4494
lfingers 7.12502
lthumb 13.5886 47.9859
rfemur -50.1334 -0.286283 29.0561
rtibia 55.7923
rfoot -9.82886 -20.8477
rtoes 16.9275
lfemur -40.5078 -2.77918 -18.1109
ltibia 59.7542
lfoot 10.1305 15.4375
ltoes -25.1402
396
root 2.1257 17.2162 27.7199 -149.9 -13.5308 -179.576
lowerback -13.0005 -2.58461 0.651668
upperback -9.75839 -4.87283 2.10947
thorax -2.86488 -3.0257 1.36458
lowerneck -15.5221 1.22686 -2.17995
upperneck 32.5212 -0.634188 1.93385
head 13.5817 -1.14836 0.837267
rclavicle 1.33372e-014 -1.37658e-014
rhumerus -52.3672 -16.3169 -46.4378
rradius 31.5777
rwrist -35.3538
rhand -18.2475 2.7122
rfingers 7.12502
rthumb 8.03142 -27.1152
lclavicle 1.33372e-014 -1.37658e-014
lhumerus -21.8965 -16.2368 80.1282
lradius 21.6065
lwrist -19.2127
lhand -12.1846 16.5681
lfingers 7.12502
lthumb 13.8791 46.0849
rfemur -49.7149 -0.364425 28.9338
rtibia 56.0592
rfoot -11.9513 -20.3972
rtoes 12.2005
lfemur -41.7883 -2.93681 -18.5936
ltibia 62.2696
lfoot 10.4076 15.3278
ltoes -24.1346
397
root 2.14586 17.0891 27.6304 -149.789 -13.3962 -180.095
lowerback -13.2188 -2.64136 0.151337
upperback -9.57648 -4.86941 2.11768
thorax -2.51633 -2.98591 1.62236
lowerneck -15.6462 1.19232 -2.55205
upperneck 32.2824 -0.421154 1.74826
head 13.499 -1.09881 0.867903
rclavicle 2.79417e-014 -3.24019e-014
rhumerus -52.8116 -14.8806 -49.7054
rradius 34.6756
rwrist -39.6489
rhand -18.1041 2.17807
rfingers 7.12502
rthumb 8.1699 -27.644
lclavicle 2.79417e-014 -3.24019e-014
lhumerus -23.8817 -13.5985 80.7678
lradius 21.9426
lwrist -14.342
lhand -11.6968 15.2888
lfingers 7.12502
lthumb 14.3491 44.7729
rfemur -49.0973 -0.164988 28.6807
rtibia 56.3901
rfoot -14.7034 -20.3864
rtoes 9.71097
lfemur -42.8835 -3.14783 -19.0437
ltibia 64.8602
lfoot 10.0581 14.312
ltoes -24.5282
398
root 2.16011 16.956 27.5394 -149.783 -13.266 -180.495
lowerback -13.4499 -2.71769 -0.164807
upperback -9.26786 -4.88563 2.23907
thorax -2.02969 -2.9543 1.88505
lowerneck -15.7959 1.18765 -3.0908
upperneck 31.6074 0.00731511 1.50248
head 13.2303 -0.94663 0.943528
rclavicle 1.49585e-014 1.41137e-014
rhumerus -52.6486 -13.6504 -52.7723
rradius 37.3646
rwrist -42.9819
rhand -18.9567 0.996055
rfingers 7.12502
rthumb 7.34691 -28.8564
lclavicle 1.49585e-014 1.41137e-014
lhumerus -25.8008 -10.8026 81.3342
lradius 22.3525
lwrist -9.67876
lhand -11.3519 13.8552
lfingers 7.12502
lthumb 14.6815 43.3154
rfemur -48.4144 0.275654 28.4345
rtibia 56.7294
rfoot -17.6407 -20.6435
rtoes 8.205
lfemur -44.0162 -3.41666 -19.3644
ltibia 67.5936
lfoot 9.35721 13.3966
ltoes -23.1444
399
root 2.17134 16.8249 27.4548 -149.865 -13.1308 -180.776
lowerback -13.2897 -2.7003 -0.239139
upperback -9.08659 -4.81009 2.32534
thorax -1.91112 -2.89211 2.02457
lowerneck -15.5505 1.11293 -3.58979
upperneck 30.6654 0.291287 1.26309
head 12.7759 -0.845529 0.989352
rclavicle 6.08778e-015 -8.15017e-015
rhumerus -52.3481 -12.7047 -55.4509
rradius 39.2862
rwrist -44.9905
rhand -20.9251 -1.36476
rfingers 7.12502
rthumb 5.44667 -31.2748
lclavicle 6.08778e-015 -8.15017e-015
lhumerus -27.9176 -8.37921 81.8564
lradius 22.7755
lwrist -5.1386
lhand -11.1699 12.393
lfingers 7.12502
lthumb 14.8568 41.8403
rfemur -47.6918 0.918667 28.2126
rtibia 56.9795
rfoot -20.4378 -21.1211
rtoes 9.40327
lfemur -45.3796 -3.78222 -19.5523
ltibia 70.4367
lfoot 8.89506 12.55
ltoes -21.6785
400
root 2.18362 16.7031 27.3764 -150.117 -13.0081 -180.956
lowerback -12.6845 -2.64829 -0.267173
upperback -8.90385 -4.67358 2.47226
thorax -2.02952 -2.7909 2.23855
lowerneck -15.6754 0.967197 -4.13582
upperneck 30.0021 0.473916 0.995273
head 12.527 -0.805057 1.0165
rclavicle 4.23908e-014 -2.8625e-014
rhumerus -51.9213 -11.69 -57.9788
rradius 41.0841
rwrist -46.0407
rhand -19.4655 -0.293249
rfingers 7.12502
rthumb 6.85581 -30.1622
lclavicle 4.23908e-014 -2.8625e-014
lhumerus -29.9298 -5.93354 82.2471
lradius 23.2632
lwrist -0.890365
lhand -10.8355 11.5866
lfingers 7.12502
lthumb 15.1789 41.0098
rfemur -46.7867 1.7267 28.0487
rtibia 57.0781
rfoot -22.4943 -21.8854
rtoes 9.25534
lfemur -46.7862 -4.11944 -19.6323
ltibia 73.3637
lfoot 8.6861 11.3477
ltoes -21.9563
401
root 2.18565 16.5842 27.3004 -150.351 -12.875 -180.597
lowerback -12.1584 -2.43791 0.31737
upperback -8.68134 -4.39216 2.76025
thorax -2.10147 -2.64336 2.26439
lowerneck -16.1716 0.808444 -4.75328
upperneck 29.4072 0.688415 0.743703
head 12.3863 -0.748242 1.06927
rclavicle -1.02871e-014 -7.95139e-016
rhumerus -51.2093 -10.5983 -60.4247
rradius 42.8297
rwrist -46.4101
rhand -19.1072 -0.134752
rfingers 7.12502
rthumb 7.20168 -29.9922
lclavicle -1.02871e-014 -7.95139e-016
lhumerus -31.8302 -3.43115 82.4644
lradius 23.8702
lwrist 2.90154
lhand -10.7091 10.9795
lfingers 7.12502
lthumb 15.3007 40.3935
rfemur -45.8926 2.5908 28.3976
rtibia 56.9308
rfoot -24.3307 -22.3208
rtoes 4.97172
lfemur -48.4127 -4.2435 -19.206
ltibia 76.3882
lfoot 7.74121 9.99911
ltoes -22.5281
